PathFileType	4	(X/Y/Z)	/Users/itak/Documents/Research/Walk-IL/dataset/trc/00066_00006.trc
DataRate	CameraRate	NumFrames	NumMarkers	Units	OrigDataRate	OrigDataStartFrame	OrigNumFrames
100.000000	100.000000	4	53	mm	100.000000	184	739
Frame#	Time	RPSI			LPSI			L3			STRN			T10			C7			CLAV			RBAK			LBAK			LSHO			LUPA			LAEL			LAOL			LWTS			LWPS			LFRA			LIFD			LHPS			LHTS			RSHO			RUPA			RAEL			RAOL			RWTS			RWPS			RFRA			RIFD			RHTS			RHPS			RBHD			LFHD			RFHD			LBHD			LHIP			RHIP			RASI			LASI			LKNE			LTHI			LANK			LTIP			LTOE			LMT1			LMT5			LHEE			RKNE			RTHI			RANK			RTIP			RTOE			RMT1			RMT5			RHEE			
		X1	Y1	Z1	X2	Y2	Z2	X3	Y3	Z3	X4	Y4	Z4	X5	Y5	Z5	X6	Y6	Z6	X7	Y7	Z7	X8	Y8	Z8	X9	Y9	Z9	X10	Y10	Z10	X11	Y11	Z11	X12	Y12	Z12	X13	Y13	Z13	X14	Y14	Z14	X15	Y15	Z15	X16	Y16	Z16	X17	Y17	Z17	X18	Y18	Z18	X19	Y19	Z19	X20	Y20	Z20	X21	Y21	Z21	X22	Y22	Z22	X23	Y23	Z23	X24	Y24	Z24	X25	Y25	Z25	X26	Y26	Z26	X27	Y27	Z27	X28	Y28	Z28	X29	Y29	Z29	X30	Y30	Z30	X31	Y31	Z31	X32	Y32	Z32	X33	Y33	Z33	X34	Y34	Z34	X35	Y35	Z35	X36	Y36	Z36	X37	Y37	Z37	X38	Y38	Z38	X39	Y39	Z39	X40	Y40	Z40	X41	Y41	Z41	X42	Y42	Z42	X43	Y43	Z43	X44	Y44	Z44	X45	Y45	Z45	X46	Y46	Z46	X47	Y47	Z47	X48	Y48	Z48	X49	Y49	Z49	X50	Y50	Z50	X51	Y51	Z51	X52	Y52	Z52	X53	Y53	Z53	

185	1.84	533.615234375	1016.768249511719	1040.919311523438	405.8713073730469	1010.267822265625	926.091064453125	461.2347412109375	1080.276000976562	972.6156005859375	665.5450439453125	1264.505004882812	808.92919921875	443.8866882324219	1209.714965820312	965.7279663085938	497.8980407714844	1474.566528320312	920.4640502929688	643.474853515625	1379.930541992188	823.830078125	484.1448669433594	1339.114990234375	1019.875671386719	419.6377563476562	1438.804931640625	852.07861328125	465.2731018066406	1439.283325195312	734.6107177734375	408.6926574707031	1313.976196289062	677.79150390625	424.1642150878906	1101.507934570312	633.6906127929688	419.8277282714844	1078.585693359375	738.5381469726562	582.1687622070312	890.9312133789062	623.84716796875	505.4908142089844	863.2274780273438	603.0077514648438	458.0020141601562	998.6219482421875	608.323486328125	645.3346557617188	715.4339599609375	625.6911010742188	553.3048095703125	791.0009765625	586.1738891601562	617.5430297851562	815.455078125	605.61474609375	648.061279296875	1438.045532226562	1029.811889648438	665.2197265625	1377.022827148438	1094.690551757812	616.7102661132812	1138.050415039062	1185.944946289062	582.3551025390625	1102.946166992188	1099.721069335938	676.6566772460938	857.1109008789062	1125.710815429688	638.49755859375	862.551513671875	1204.01708984375	619.4204711914062	1056.142944335938	1202.007690429688	618.0830078125	675.8366088867188	1138.2783203125	669.7534790039062	749.5575561523438	1133.220947265625	646.6320190429688	767.2449951171875	1204.431274414062	521.5748291015625	1648.428344726562	908.9349975585938	694.5382080078125	1675.0068359375	782.1536254882812	575.7675170898438	1676.52734375	740.921630859375	654.2890625	1638.843139648438	945.1021728515625	413.5288391113281	941.7828979492188	790.336181640625	639.6629028320312	949.39794921875	1052.314208984375	711.6524047851562	969.676025390625	949.8078002929688	531.8958740234375	949.8772583007812	751.0933837890625	549.461181640625	483.0921325683594	858.315185546875	486.5105590820312	616.0855712890625	824.7164306640625	472.1668090820312	44.51741790771484	988.9393920898438	501.9826354980469	245.5055389404297	920.954345703125	668.678955078125	39.14537811279297	926.289306640625	640.0862426757812	38.30241394042969	990.3291015625	554.8568725585938	38.19863510131836	916.1063232421875	452.8036499023438	48.57610702514648	1079.637939453125	800.6029663085938	545.2783203125	857.3655395507812	747.8523559570312	798.703857421875	952.9026489257812	722.58447265625	83.49868011474609	1022.974609375	796.5784301757812	420.6186218261719	889.873291015625	819.579833984375	60.89170074462891	836.5623168945312	753.0800170898438	64.75440979003906	856.9116821289062	809.2797241210938	70.02601623535156	938.6436767578125	650.56591796875	90.17212677001953	1022.264892578125	
186	1.85	541.6372680664062	1015.917419433594	1035.459106445312	412.5004577636719	1009.313293457031	922.137451171875	468.3094177246094	1079.424438476562	968.0823364257812	670.4496459960938	1263.410766601562	801.67041015625	450.72705078125	1208.838012695312	961.2055053710938	504.1524658203125	1473.70556640625	914.8814086914062	648.5965576171875	1378.854858398438	816.7316284179688	491.6806335449219	1338.373046875	1014.730895996094	425.0816955566406	1437.83203125	847.571533203125	469.3722229003906	1438.14892578125	729.5899658203125	412.1676330566406	1312.803100585938	673.4547729492188	427.6122436523438	1100.524658203125	628.8294677734375	424.0254516601562	1077.331298828125	733.3544921875	587.7403564453125	891.61328125	617.774169921875	511.3435974121094	863.157470703125	597.0260009765625	462.40625	998.0491943359375	602.9307861328125	652.8649291992188	716.8436889648438	619.0009155273438	559.9258422851562	791.47412109375	579.8739624023438	623.8644409179688	816.5775756835938	599.2710571289062	655.6806640625	1437.236694335938	1022.523132324219	673.4344482421875	1376.387939453125	1087.325317382812	625.2294921875	1137.8134765625	1179.685424804688	589.929931640625	1102.545532226562	1093.801513671875	683.8372192382812	856.5010375976562	1119.736938476562	646.599853515625	862.3494873046875	1198.426513671875	627.9719848632812	1055.96435546875	1195.955932617188	624.6558227539062	675.4215698242188	1133.697265625	676.6348876953125	748.9752807617188	1127.72607421875	654.4160766601562	767.0150756835938	1199.144653320312	527.8536987304688	1647.39501953125	902.8866577148438	699.6243896484375	1673.89990234375	774.4760131835938	580.4548950195312	1675.50341796875	734.3883666992188	660.906982421875	1637.736328125	937.8103637695312	417.8741455078125	940.961669921875	786.0868530273438	647.9856567382812	948.6237182617188	1045.3291015625	718.39453125	968.8419799804688	941.794189453125	536.021484375	948.8156127929688	745.4900512695312	551.8680419921875	481.9846801757812	855.3695068359375	489.7449035644531	615.3123168945312	821.466064453125	472.3971862792969	44.6061897277832	989.1690063476562	503.3050842285156	245.0779876708984	919.8414306640625	668.7061157226562	39.07194900512695	926.234130859375	640.2222290039062	38.26005172729492	990.3604736328125	554.9290161132812	38.21413803100586	916.1375122070312	453.2005920410156	49.08663940429688	1079.898681640625	805.8458862304688	545.4174194335938	846.0888061523438	754.8035888671875	798.0906372070312	943.849609375	746.787353515625	75.17407989501953	995.6945190429688	806.0941162109375	419.6387939453125	874.4911499023438	836.680419921875	62.07266616821289	804.77685546875	770.9850463867188	63.79325103759766	827.8762817382812	830.206298828125	66.79901885986328	907.5049438476562	674.57470703125	80.34698486328125	997.9330444335938	
187	1.86	549.5555419921875	1014.961120605469	1029.868896484375	419.0634155273438	1008.236267089844	917.9129638671875	475.3204040527344	1078.46044921875	963.3442993164062	675.390625	1262.226318359375	794.3850708007812	457.5639038085938	1207.870971679688	956.5151977539062	510.4409484863281	1472.740478515625	909.2197875976562	653.76220703125	1377.690673828125	809.5860595703125	499.1986694335938	1337.52392578125	1009.453369140625	430.5717468261719	1436.78369140625	842.938232421875	473.5632934570312	1436.948486328125	724.4777221679688	415.7359313964844	1311.585571289062	669.0142211914062	431.0602722167969	1099.474731445312	623.9284057617188	428.1947326660156	1076.016479492188	728.0787353515625	593.1331787109375	892.1552734375	611.585693359375	516.9934692382812	863.02392578125	590.939453125	466.7293701171875	997.4031372070312	597.4725952148438	660.0700073242188	718.0786743164062	612.1121826171875	566.2846069335938	791.8555908203125	573.4380493164062	629.9568481445312	817.5460815429688	592.7789916992188	663.26513671875	1436.324462890625	1015.170104980469	681.61962890625	1375.628540039062	1079.876098632812	633.797119140625	1137.45703125	1173.3291015625	597.5659790039062	1102.025634765625	1087.816528320312	691.1347045898438	855.8009033203125	1113.628784179688	654.8335571289062	862.0327758789062	1192.698364257812	636.6072998046875	1055.662109375	1189.799438476562	631.4188842773438	674.9149169921875	1128.971801757812	683.6690673828125	748.3055419921875	1122.088012695312	662.3410034179688	766.6746826171875	1193.703491210938	534.1588134765625	1646.27978515625	896.7680053710938	704.737060546875	1672.689697265625	766.7630615234375	585.1890869140625	1674.36474609375	727.79833984375	667.5294189453125	1636.552001953125	930.458984375	422.3648986816406	940.0368041992188	781.646484375	656.1077880859375	947.7158813476562	1038.254272460938	725.073974609375	967.8579711914062	933.8009643554688	540.27587890625	947.6670532226562	739.8040771484375	554.4170532226562	480.8330383300781	852.3455200195312	493.0884704589844	614.4622802734375	818.060791015625	472.6758422851562	44.72395706176758	989.4879760742188	504.6768798828125	244.6035308837891	918.699462890625	668.7610473632812	39.013427734375	926.1521606445312	640.373046875	38.21341705322266	990.3817749023438	555.0316162109375	38.249755859375	916.2037963867188	453.6921081542969	49.67621612548828	1080.248779296875	810.8142700195312	545.1582641601562	835.489990234375	761.6511840820312	797.2877197265625	935.0179443359375	770.1564331054688	67.61072540283203	967.5330810546875	815.1283569335938	418.6014709472656	859.6240234375	852.8115234375	64.24817657470703	772.8810424804688	788.0623779296875	63.67522811889648	798.5285034179688	850.1536254882812	64.51644134521484	875.92236328125	697.911376953125	71.12024688720703	972.5659790039062	
188	1.87	557.4043579101562	1013.903930664062	1024.161376953125	425.5668334960938	1007.043701171875	913.4309692382812	482.2636413574219	1077.382568359375	958.389892578125	680.3726196289062	1260.952392578125	787.065673828125	464.3948669433594	1206.818237304688	951.6605224609375	516.7700805664062	1471.661254882812	903.478515625	658.9747924804688	1376.438354492188	802.388671875	506.6810302734375	1336.5595703125	1004.027954101562	436.1142883300781	1435.66259765625	838.1676025390625	477.8500061035156	1435.683715820312	719.2625122070312	419.4053649902344	1310.324584960938	664.461669921875	434.517822265625	1098.358276367188	618.9699096679688	432.3467712402344	1074.640991210938	722.711669921875	598.3402099609375	892.5394287109375	605.2655029296875	522.417724609375	862.7965087890625	584.7628784179688	470.9585876464844	996.6682739257812	591.946044921875	666.9542236328125	719.1237182617188	605.02587890625	572.3561401367188	792.1168212890625	566.8834838867188	635.8129272460938	818.3453979492188	586.122802734375	670.80908203125	1435.302368164062	1007.755615234375	689.77294921875	1374.739013671875	1072.344482421875	642.4204711914062	1136.974731445312	1166.88330078125	605.267578125	1101.38525390625	1081.781494140625	698.556396484375	855.0062255859375	1107.377197265625	663.202392578125	861.5903930664062	1186.824951171875	645.3262939453125	1055.227783203125	1183.544921875	638.3868408203125	674.3082885742188	1124.078125	690.87451171875	747.5464477539062	1116.287109375	670.42333984375	766.2137451171875	1188.091796875	540.4925537109375	1645.080200195312	890.5868530273438	709.8709716796875	1671.386596679688	759.0186157226562	589.9652709960938	1673.118896484375	721.1570434570312	674.157470703125	1635.288330078125	923.0535278320312	426.9953002929688	939.01025390625	777.02392578125	664.0615844726562	946.6670532226562	1031.064331054688	731.7180786132812	966.7315673828125	925.7951049804688	544.63818359375	946.4341430664062	734.0218505859375	557.0836181640625	479.63037109375	849.2535400390625	496.5159301757812	613.537841796875	814.5178833007812	472.9962158203125	44.87752532958984	989.8989868164062	506.0869140625	244.0929718017578	917.5401000976562	668.8540649414062	38.96168518066406	926.0526733398438	640.5396728515625	38.15300369262695	990.3902587890625	555.1672973632812	38.30634307861328	916.310791015625	454.2768859863281	50.35144424438477	1080.690307617188	815.5830688476562	544.4904174804688	825.5794677734375	768.4444580078125	796.298095703125	926.3850708007812	792.5573120117188	60.91279220581055	938.6524658203125	823.7105102539062	417.4989929199219	845.326171875	867.9541015625	67.49583435058594	741.097412109375	804.2748413085938	64.46996307373047	769.06298828125	869.0595703125	63.3023681640625	844.1128540039062	720.4267578125	62.5995979309082	946.3057250976562	
